<mxfile host="app.diagrams.net" modified="2024-03-18T06:35:57.331Z" agent="Mozilla/5.0 (Macintosh; Intel Mac OS X 10.15; rv:123.0) Gecko/20100101 Firefox/123.0" version="24.0.4" etag="7y-_sHVnP3Bskf87JiFo" type="github">
  <diagram name="Page-1" id="PgmlDdDdMXgfD5-f8Taq">
    <mxGraphModel>
      <root>
        <mxCell id="0" />
        <mxCell id="1" parent="0" />
      </root>
    </mxGraphModel>
  </diagram>
</mxfile>
